<svg id="Calque_1" data-name="Calque 1" xmlns="http://www.w3.org/2000/svg" viewBox="0 0 547.31 547.31"><defs><style>.cls-1{fill:#ec6608;}</style></defs><title>picto_crane</title><path class="cls-1" d="M583,635.12a19.85,19.85,0,0,0-8.81,16.62V684.3H419V649.47a19.94,19.94,0,0,0-8.52-16.41,154.39,154.39,0,0,1-66.66-131.6c2.31-82.21,70-148.9,152.18-150.1l2.32,0A154.54,154.54,0,0,1,583,635.12M499.34,226c-151.13,0-273.65,122.52-273.65,273.66S348.21,773.31,499.34,773.31,773,650.79,773,499.66,650.48,226,499.34,226" transform="translate(-225.69 -226)"/><path class="cls-1" d="M554.6,547.48c-20.73,0-37.53,13-37.53,28.93s16.8,28.94,37.53,28.94,37.52-13,37.52-28.94-16.8-28.93-37.52-28.93" transform="translate(-225.69 -226)"/><path class="cls-1" d="M441.57,547.48c-20.72,0-37.52,13-37.52,28.93s16.8,28.94,37.52,28.94,37.53-13,37.53-28.94-16.8-28.93-37.53-28.93" transform="translate(-225.69 -226)"/><path class="cls-1" d="M505.32,614.77a8.21,8.21,0,0,0-15.08,0L474.18,652a8.21,8.21,0,0,0,7.54,11.48h32.12A8.22,8.22,0,0,0,521.39,652Z" transform="translate(-225.69 -226)"/></svg>