<svg id="Calque_1" data-name="Calque 1" xmlns="http://www.w3.org/2000/svg" viewBox="0 0 578.89 540.64"><defs><style>.cls-1{fill:#168944;}</style></defs><title>picto_fleur</title><path class="cls-1" d="M431.52,286.89l-15.27-37.38a270,270,0,0,0-71.52,43.17l25.95,30.94a229.79,229.79,0,0,1,60.84-36.73" transform="translate(-210.11 -229.52)"/><path class="cls-1" d="M518.44,269.9h0c3.55,0,7.18.09,10.78.25l1.84-40.34c-4.21-.19-8.45-.29-12.62-.29h0a271.22,271.22,0,0,0-70.37,9.26l10.48,39a230.5,230.5,0,0,1,59.9-7.88" transform="translate(-210.11 -229.52)"/><path class="cls-1" d="M743,449.41l39.41-8.84a268.66,268.66,0,0,0-30.77-77.73l-34.79,20.51A228.08,228.08,0,0,1,743,449.41" transform="translate(-210.11 -229.52)"/><path class="cls-1" d="M350,343.28l-29.56-27.51A270.66,270.66,0,0,0,273.58,385l36.53,17.19A230.25,230.25,0,0,1,350,343.28" transform="translate(-210.11 -229.52)"/><path class="cls-1" d="M700.9,359.72l32-24.64a271.32,271.32,0,0,0-60.53-57.56l-23,33.2a231.23,231.23,0,0,1,51.55,49" transform="translate(-210.11 -229.52)"/><path class="cls-1" d="M643.64,260.16a268.68,268.68,0,0,0-79.21-26.75l-6.82,39.81A227.94,227.94,0,0,1,624.93,296Z" transform="translate(-210.11 -229.52)"/><path class="cls-1" d="M626.8,703.16l19,35.61a270.74,270.74,0,0,0,66.72-50.27l-29-28.13a230.44,230.44,0,0,1-56.79,42.79" transform="translate(-210.11 -229.52)"/><path class="cls-1" d="M702.18,638.71l32.21,24.35a269.75,269.75,0,0,0,39.5-73.66l-38.12-13.34a229.11,229.11,0,0,1-33.59,62.65" transform="translate(-210.11 -229.52)"/><path class="cls-1" d="M787.73,473.7l-40.19,3.88c.71,7.41,1.07,15,1.08,22.47a231.94,231.94,0,0,1-5.12,48.55L783,557.07a272.89,272.89,0,0,0,6-57c0-8.8-.43-17.66-1.27-26.35" transform="translate(-210.11 -229.52)"/><path class="cls-1" d="M467.76,488.74a47.74,47.74,0,1,1,47.74,47.73,47.73,47.73,0,0,1-47.74-47.73m63.63,241.1.42,7.55c-4.21-30.45-10.65-77.52-10.42-111.23A45.37,45.37,0,0,0,560,593.46a45.37,45.37,0,0,0,61-62.12,45.37,45.37,0,0,0-.77-87.08,45.37,45.37,0,0,0-62.13-61A45.36,45.36,0,0,0,471,384a45.37,45.37,0,0,0-61,62.12,45.37,45.37,0,0,0,.77,87.08,45.37,45.37,0,0,0,62.13,61,45.45,45.45,0,0,0,14.59,21.85c-1.7,37.73,5.87,92.69,10.59,126.84,1.53,11.13,3.28,23.75,3.31,26.57h32.19l0,.66a269.39,269.39,0,0,0,81.73-17.45L600.89,715a229.05,229.05,0,0,1-69.5,14.83" transform="translate(-210.11 -229.52)"/><path class="cls-1" d="M289.34,478.58a229,229,0,0,1,10.26-49.89l-38.39-12.52a269.25,269.25,0,0,0-12.76,68.05l-38.34,5.28,71.65,92.2,44-108.14Z" transform="translate(-210.11 -229.52)"/><path class="cls-1" d="M420.64,625.76C365.47,595,285.53,595.92,285.53,595.92s17.38,122.59,187.09,148.24c-39.93-54.27-151.73-123.69-151.73-123.69,113.42,56.77,159,98.73,173.93,115l.11-.09s-19.11-78.92-74.29-109.65" transform="translate(-210.11 -229.52)"/><path class="cls-1" d="M567.11,627.75C534,651.16,528,706,528,706l.09,0c8.34-11.8,34.36-42.47,103-86.22,0,0-66.56,52.33-88,91.18C650.56,686.1,651.91,601.48,651.91,601.48s-51.66,2.86-84.8,26.27" transform="translate(-210.11 -229.52)"/></svg>