<svg id="Calque_1" data-name="Calque 1" xmlns="http://www.w3.org/2000/svg" viewBox="0 0 566.24 566.24"><defs><style>.cls-1{fill:#0086cd;}</style></defs><title>picto_megaphone</title><path class="cls-1" d="M673.21,591c19-24.54,31.92-52.47,37.29-81.56a171.57,171.57,0,0,0-53.84-159.22C634.75,330.37,607.57,316,577.55,308c31.16.3,62.65,11.62,88.34,31a161,161,0,0,1,33.79,34.61l3.42,5.05c1.09,1.7,2.34,3.33,3.31,5.12,2,3.53,4.1,7,6,10.62s3.5,7.35,5.14,11.07l4.36,11.39,3.44,11.7c.95,4,1.78,8,2.62,11.92.69,4,1.13,8.06,1.69,12.08s.58,8.11.81,12.16a161.3,161.3,0,0,1-5.87,48c-8.65,31-26.8,59.1-51.37,78.26m-32.9-32.83c13-18.45,21.54-38.56,24.94-59.29A125.65,125.65,0,0,0,627.1,386.08c-15.28-14.41-34.29-25.19-55.78-32,22.64-.88,45.95,6.89,65,20.82A114.85,114.85,0,0,1,661.44,400c.29.38,2.27,3.29,2.55,3.68.81,1.25,1.7,2.46,2.44,3.76,1.51,2.57,3.05,5.14,4.43,7.8s2.61,5.38,3.81,8.12c.38.88,2.9,7.47,3.21,8.38s2.29,7.68,2.53,8.62c.7,2.9,1.31,5.84,1.89,8.78s.84,5.93,1.2,8.9.42,6,.54,8.95a114.76,114.76,0,0,1-4.71,35.18c-6.7,22.63-20.5,42.93-39,56m-6.22-66.54c-4.76,14.24-14.22,26.76-26.66,33.72,6.86-12.38,11.14-24.67,12.58-37a80.66,80.66,0,0,0-22.47-66.42c-8.65-8.95-19.49-16.13-32.45-21.83,14.12-2,29.24,2.17,41.67,10.61a71.48,71.48,0,0,1,27.33,80.95M588.71,606.57,458.77,576.8a88.25,88.25,0,0,0-48,2.42l-4.57,1.54,39.32,90.92a14.89,14.89,0,0,1-8.9,20l-12.18,4.12a22.32,22.32,0,0,1-26-9.26l-53.49-85.08-5.22,1.77a53.32,53.32,0,1,1-34.14-101l70.33-23.77a90.41,90.41,0,0,0,40.82-28.14l84.56-102.53a8.68,8.68,0,0,1,14.91,2.74l24.42,72.27,6.31,18.65,2.52-.86a27.85,27.85,0,0,1,35.3,17.47l3.16,9.36a27.84,27.84,0,0,1-17.46,35.3l-2.53.86,6.84,20.23,24.18,71.54a8.68,8.68,0,0,1-10.16,11.23M499.88,217c-156.36,0-283.12,126.75-283.12,283.12S343.52,783.23,499.88,783.23,783,656.48,783,500.12,656.25,217,499.88,217" transform="translate(-216.76 -217)"/></svg>