<svg id="Calque_1" data-name="Calque 1" xmlns="http://www.w3.org/2000/svg" viewBox="0 0 523.94 535.86"><defs><style>.cls-1{fill:#7226ae;}</style></defs><title>picto_maison</title><path class="cls-1" d="M494.82,451.78a40.38,40.38,0,1,0,40.38,40.38,40.37,40.37,0,0,0-40.38-40.38" transform="translate(-237.3 -231.33)"/><path class="cls-1" d="M713.74,354.88H637.9L621.05,318a27.92,27.92,0,0,0-25.37-16.29H584.29V455.48l83.45,55.14c9.59,6.34,5.16,21.41-6.3,21.41H639.71v86c0,26.06-25.07,47.18-56,47.18H535.2V600.54a39.33,39.33,0,0,0-78.65,0v64.67H407.67c-30.93,0-56-21.12-56-47.18V532H329.94c-11.45,0-15.89-15.07-6.3-21.41l142.25-94a54,54,0,0,1,59.61,0l19.34,12.78V301.74H534.63A27.93,27.93,0,0,0,509.25,318l-16.84,36.85h-69.3c5-13.45,12.32-26.35,22.61-37a68.55,68.55,0,0,1,23.49-16.25,46.79,46.79,0,0,1,29.65-2.09c-8.85-5.81-20.33-8.39-31.72-7.6s-22.73,4.46-33,9.87A118.4,118.4,0,0,0,414,315.34a136.5,136.5,0,0,1,5.26-25.53,103.14,103.14,0,0,1,17.35-33.37,96.31,96.31,0,0,1,30.11-25.11,101.54,101.54,0,0,0-37,18,117.88,117.88,0,0,0-28.39,32.09,168,168,0,0,0-17.44,39.82c-.15.48-.26,1-.4,1.45a70,70,0,0,0-13.91-12.44,74.07,74.07,0,0,0-26.74-11.12,99.19,99.19,0,0,0-27.09-1.58,95.35,95.35,0,0,1,23.81,10.07,60.06,60.06,0,0,1,17.65,16,48.05,48.05,0,0,1,8.45,19.84,49.18,49.18,0,0,1,.63,11.4H284.79A260.67,260.67,0,0,0,237.3,505.22c0,144.68,117.28,262,262,262s262-117.29,262-262A260.67,260.67,0,0,0,713.74,354.88Z" transform="translate(-237.3 -231.33)"/></svg>